<?xml version="1.0" encoding="utf-8"?>
<!-- Generator: Adobe Illustrator 25.4.1, SVG Export Plug-In . SVG Version: 6.00 Build 0)  -->
<svg version="1.1" id="Layer_1_xA0_Image" xmlns="http://www.w3.org/2000/svg" xmlns:xlink="http://www.w3.org/1999/xlink" x="0px"
	 y="0px" viewBox="0 0 1164 503" style="enable-background:new 0 0 1164 503;" xml:space="preserve">
<style type="text/css">
	.st0{fill:#FFFFFF;}
	.st1{font-family:'Cambria-Bold';}
	.st2{font-size:97.7931px;}
</style>
<g>
	<path class="st0" d="M302.85,39.18c9.05,22.23,18.07,44.47,27.16,66.67c13.59,33.2,27.24,66.37,40.85,99.56
		c0.5,1.23,0.93,2.49,1.58,4.25c-8.6-2.36-16.28-0.26-23.74,2.56c-3.19,1.2-6.87,2.91-8.7,5.52c-3.37,4.8-7.66,4.61-12.52,4.8
		c-5.62,0.22-8.36-1.71-10.51-7.2c-9.04-23.14-18.72-46.03-28.18-69.01c-0.56-1.36-1.23-2.68-2.21-4.82
		c-5.77,14.04-11.17,27.18-16.58,40.33c-4.94,12-9.97,23.97-14.75,36.04c-1.16,2.93-2.43,4.6-5.92,4.41
		c-3.17-0.17-6.38,0.46-9.4,0.73c-9.91-14.46-17.67-18.26-37.06-18c0.61-1.65,1.12-3.14,1.71-4.59
		c21.46-52.3,42.93-104.59,64.37-156.9c0.56-1.37,0.78-2.89,1.16-4.34C281.03,39.18,291.94,39.18,302.85,39.18z"/>
	<path class="st0" d="M97.2,460.57c1.99-4.41,4.12-8.76,5.96-13.23c19.92-48.42,39.82-96.85,59.6-145.33
		c1.3-3.18,2.85-4.14,6.31-4.33c9.17-0.51,18.3-1.74,27.45-2.66c0.76-0.08,1.84-0.31,2.26,0.08c6.06,5.61,13.61,6.59,21.83,6.98
		c-3.69,8.98-7.28,17.72-10.88,26.47c-18.21,44.29-36.41,88.58-54.62,132.86c-18.2,0-36.39,0.01-54.59-0.04
		C99.41,461.37,98.31,460.85,97.2,460.57z"/>
	<path class="st0" d="M417.85,461.41c-5.94-14.75-11.82-29.53-17.85-44.25c-14.61-35.67-29.29-71.31-43.93-106.97
		c-0.58-1.4-1.03-2.85-1.66-4.58c7.52-0.22,14.39-1.58,20.01-6.6c0.48-0.43,1.61-0.56,2.25-0.33c9.87,3.68,20.14,2.66,30.31,2.61
		c2.55-0.01,3.68,0.82,4.61,3.08c21.21,51.83,42.49,103.62,63.74,155.43c0.21,0.51,0.3,1.07,0.44,1.61
		C456.47,461.41,437.16,461.41,417.85,461.41z"/>
	<path class="st0" d="M1074.28,285.13c-7.41-0.06-14.81-0.08-22.22-0.22c-1.11-0.02-2.2-0.64-3.31-0.98
		c0.66-0.89,1.67-1.7,1.91-2.69c0.41-1.69,1.13-4.04,0.35-5.17c-5.15-7.47-10.44-14.87-16.22-21.85c-1.34-1.61-4.74-1.64-7.24-2.06
		c-0.52-0.09-1.85,1.33-1.84,2.04c0.06,7.26,0.05,14.54,0.73,21.75c0.17,1.82,2.71,3.43,4.22,5.09c0.9,0.99,1.9,1.87,2.86,2.81
		c-0.25,0.31-0.5,0.63-0.75,0.94c-8.36,0-16.71,0-26.57,0c1.45-1.73,2.08-3.15,3.12-3.59c3.09-1.3,4.64-3.45,4.78-6.71
		c0.18-4.19,0.47-8.37,0.48-12.56c0.03-17.76-0.01-35.51-0.06-53.27c-0.01-2.51-0.24-5.02-0.37-7.54c-0.21-4.04-1.77-6.92-6.13-7.84
		c-0.86-0.18-1.46-1.58-2.18-2.41c0.9-0.43,1.79-1.21,2.7-1.23c5.54-0.12,11.09-0.06,17.13-0.06c0,19.24,0,38.46,0,58.01
		c1.73,0,2.97,0.1,4.18-0.02c5.39-0.54,17.48-11.62,18.53-16.97c0.57-2.94-0.13-5.21-3.31-6.32c-0.69-0.24-1.09-1.33-1.62-2.02
		c0.75-0.44,1.49-1.25,2.24-1.26c7.97-0.09,15.94-0.09,23.91,0.01c0.73,0.01,1.44,0.88,2.16,1.35c-0.54,0.7-0.92,1.75-1.63,2.06
		c-11.31,4.87-18.18,14.94-27.65,22.74c8.17,10.37,15.87,20.47,24.01,30.2c1.8,2.15,5.16,2.99,7.81,4.43
		C1074.28,282.89,1074.28,284.01,1074.28,285.13z"/>
	<path class="st0" d="M1074.28,318.71c-1.5,1.5-3.55,2.73-4.41,4.54c-4.04,8.43-7.74,17.02-11.61,25.53
		c-1.21,2.67-2.42,5.35-3.88,7.88c-3.33,5.78-6.03,7-13.1,6.08c0-1.83,0-3.7,0-6.21c0.97,0.35,2.13,0.41,2.68,1.02
		c2.27,2.5,4.39,1.62,6.03-0.41c2.99-3.7,5.6-7.33,2.94-12.79c-2.86-5.87-4.59-12.28-7.03-18.36c-1.16-2.88-2.83-5.54-4.32-8.41
		c3.72,0,7.88,0,13.36,0c-5.44,2.46-4.52,5.76-3.27,9.16c1.81,4.94,3.58,9.89,5.36,14.84c0.39,0.07,0.77,0.14,1.16,0.21
		c2.39-6.26,5.01-12.45,7.01-18.83c0.43-1.36-1.41-3.44-2.56-5.95c3.76,0,7.7,0,11.64,0
		C1074.28,317.59,1074.28,318.15,1074.28,318.71z"/>
	<path class="st0" d="M401.18,293.35c-5.27-0.57-12.21-1.2-19.11-2.09c-5.4-0.69-8.65-4-10.37-9.1c-3.73-11.03-4.8-22.38-3.62-33.87
		c0.56-5.49,2.04-10.92,3.55-16.25c0.36-1.28,2.39-2.8,3.79-2.95c15.86-1.72,30.78-6.53,45.14-13.29c3.28-1.54,6.55-3.2,10-4.25
		c8.75-2.64,15.94,0.27,18.95,8.9c2.34,6.72,4.04,14.15,3.78,21.18c-0.36,9.79-2.42,19.59-4.46,29.23
		c-2.9,13.74-11.9,20.44-25.88,20.89C416.25,291.98,409.58,292.72,401.18,293.35z"/>
	<path class="st0" d="M169.04,289.63c-7.52-0.85-16.94-1.9-26.37-2.98c-7.18-0.83-11.95-4.84-15.01-11.25
		c-4.71-9.86-7.26-20.33-7.53-31.13c-0.19-7.74,0.13-15.75,1.9-23.24c3.12-13.25,12.53-17.41,24.9-11.69
		c12.7,5.88,25.48,11.43,39.31,14.06c3.15,0.6,6.33,1.32,9.51,1.38c3.87,0.08,5.79,1.91,6.88,5.39c3.28,10.49,3.31,21.21,2.34,31.97
		c-0.37,4.15-1.15,8.31-2.2,12.35c-2.59,9.94-6.02,12.8-16.27,13.85C181.36,288.86,176.19,289.11,169.04,289.63z"/>
	<path class="st0" d="M243.41,283.29c0.84-9.65,1.5-18.97,2.59-28.23c0.24-2.07,2.09-3.92,3.08-5.93c1.72-3.46,3.18-7.06,5.07-10.43
		c1.15-2.05,2.88-3.76,4.67-6.04c1.37,4.11,2.23,7.32,3.5,10.36c3.19,7.66,6.56,15.24,9.86,22.85c0.43,0.02,0.85,0.04,1.28,0.06
		c1.88-11.08,3.75-22.17,5.82-34.39c4.17,14.25,8.05,27.53,11.93,40.81c0.4-0.02,0.79-0.04,1.19-0.06
		c1.03-13.03,1.14-26.22,5.54-38.69c0.42-0.05,0.83-0.11,1.25-0.16c1.75,9.5,3.51,19,5.22,28.3c1.58-9.82,3.21-19.93,4.83-30.05
		c4.09,8.93,3.3,19.27,10.28,27.53c1.09-7.19,2.09-13.86,3.1-20.52c0.41-0.09,0.83-0.17,1.24-0.26c1.12,3.69,2.89,7.32,3.25,11.09
		c1.06,11.08,1.57,22.21,2.37,34.37c-5.4,0.1-11.59,0.11-17.76,0.4c-1.87,0.09-3.8,0.71-5.53,1.47
		c-13.12,5.81-26.16,5.74-39.32,0.03c-2.26-0.98-5.05-1.17-7.56-1.05c-3.87,0.17-7.64,1.3-11.36-1.12
		C246.74,282.86,244.7,283.36,243.41,283.29z"/>
	<path class="st0" d="M642.24,222.63c-0.42-8.51-0.5-16.43-1.41-24.26c-0.21-1.8-3.25-3.27-4.99-4.89c-0.9-0.84-1.8-1.67-2.7-2.51
		c1-0.47,2-1.32,3.01-1.35c5.41-0.14,10.83-0.06,16.76-0.06c0,1.6,0,3.23,0,4.86c0,23.92-0.01,47.84,0.02,71.77
		c0,2.65,0.15,5.31,0.32,7.96c0.23,3.58,1.9,5.94,5.53,7.01c1.12,0.33,1.92,1.76,2.87,2.69c-0.24,0.42-0.49,0.84-0.73,1.26
		c-6.1,0-12.2,0-18.68,0c0-3.38,0-6.9,0-11.5c-1.99,1.84-3.26,3.01-4.52,4.19c-4.49,4.19-9.52,7.42-15.79,8
		c-10.93,1.01-19.09-4.48-22.56-15.34c-2.87-8.95-3.37-18.16-1.33-27.34c4.07-18.25,19.16-26.91,38.06-22.05
		C637.8,221.51,639.52,221.94,642.24,222.63z M642.13,250.81c-0.26-4.28-0.38-9.31-0.92-14.29c-0.53-4.87-2.87-8.68-7.68-10.58
		c-8.24-3.27-17.31-0.16-20.83,7.97c-5.23,12.06-4.8,24.46-0.09,36.63c1.93,5,6.1,7.46,11.45,7.75c8.45,0.46,16.28-5.78,17.41-14.21
		C642.01,259.95,641.9,255.74,642.13,250.81z"/>
	<path class="st0" d="M810.47,194.43c14.81,0,29.36-0.88,43.75,0.27c12.46,0.99,18.95,8.46,20.08,19.43
		c1.39,13.5-4.68,24.52-15.88,28.94c-7.35,2.9-15.04,2.7-22.73,2.58c-1.51-0.02-3.03,0-4.63,0c0,10.11-0.3,19.96,0.25,29.76
		c0.11,1.99,3.45,3.8,5.31,5.69c0.86,0.87,1.75,1.72,2.62,2.58c-1.02,0.42-2.03,1.2-3.05,1.22c-7.55,0.1-15.09,0.1-22.64,0
		c-1.05-0.01-2.09-0.76-3.13-1.17c0.72-0.85,1.28-2.19,2.18-2.47c3.63-1.15,5.05-3.71,5.3-7.22c0.15-2.09,0.36-4.18,0.36-6.27
		c0.03-19.15,0.04-38.3,0-57.44c-0.01-5.76,0.4-11.83-7.12-13.77c-0.29-0.07-0.53-0.62-0.64-0.99
		C810.39,195.19,810.47,194.76,810.47,194.43z M830.63,239.79c12.38,2.38,23.56-0.81,27.77-7.73c4.25-6.97,4.02-20.22-0.92-26.32
		c-7.23-8.94-17.25-6.28-26.85-6.44C830.63,213.13,830.63,226.35,830.63,239.79z"/>
	<path class="st0" d="M205.82,291.09c6.46-15.02,9.32-29.11,9.31-43.84c0-10.55-2.79-19.81-10.88-27.08
		c-1.09-0.98-2.45-3.55-2.11-3.91c1.19-1.27,3.12-2.74,4.68-2.65c14.87,0.88,23.2,3.93,26.37,17.88c3.52,15.46,5.03,30.9,0.59,46.37
		c-2.07,7.2-5.46,14-13.96,14.91C215.5,293.23,210.97,291.78,205.82,291.09z"/>
	<path class="st0" d="M365.69,294.21c-8.09,5.58-18.16,3.44-23.44-5.82c-4.14-7.26-5.09-15.33-5.43-23.43
		c-0.45-10.66,1.03-21.11,3.75-31.46c2.06-7.86,6.71-12.73,14.54-14.4c4.06-0.87,8.22-1.39,12.36-1.61
		c1.21-0.06,2.93,1.19,3.61,2.32c0.4,0.66-0.48,2.66-1.34,3.41c-12.1,10.43-13.01,24.27-11.03,38.46
		C360.22,272.5,363.25,283.11,365.69,294.21z"/>
	<path class="st0" d="M749.21,248.78c-0.63-5.24-0.88-10.36-1.94-15.31c-1.05-4.93-4.86-7.35-9.73-7.87
		c-5.5-0.59-10.92,0.51-13.22,5.88c-2.26,5.29-5.74,5.51-10.24,4.69c-1.87-6.83-1.39-7.97,4.91-10.78c8.51-3.8,17.28-6.61,26.74-5.2
		c8.78,1.31,13.23,5.94,13.64,14.8c0.52,11.16,0.44,22.34,0.63,33.51c0.03,1.95,0.09,3.91,0.21,5.86c0.2,3.21,1.67,5.46,4.78,6.73
		c1.19,0.48,2.09,1.66,3.12,2.53c-0.23,0.36-0.47,0.72-0.7,1.08c-5.78,0-11.57,0-17.7,0c0-3.14,0-6.13,0-10.26
		c-2.16,1.81-3.61,2.97-5,4.18c-5.47,4.76-11.65,7.56-19.07,7.26c-7.46-0.31-12.99-4.15-14.98-10.59
		c-2.15-6.95,0.08-13.87,6.07-18.18c6.44-4.63,13.97-6.13,21.63-7.13C741.66,249.55,744.97,249.25,749.21,248.78z M748.58,253.54
		c-6.39,1.13-12.18,1.82-17.77,3.28c-2.53,0.66-5.08,2.46-6.91,4.4c-4.71,5-3.19,13.97,2.47,16.44c8.75,3.83,20.7-2.36,22.12-11.75
		C749.04,262.27,748.58,258.47,748.58,253.54z"/>
	<path class="st0" d="M567.15,248.8c-0.47-4.94-0.52-9.56-1.42-14.01c-1.17-5.8-4.4-8.54-9.98-9.17
		c-5.49-0.62-10.99,0.39-13.26,5.77c-2.33,5.51-5.85,5.72-10.5,4.69c-1.6-7.15-1.35-7.83,5.2-10.72c8.91-3.93,18.05-6.84,27.99-4.91
		c7.1,1.38,11.45,5.39,11.98,12.6c0.75,10.15,0.64,20.37,0.87,30.55c0.07,3.21-0.04,6.43,0.11,9.64c0.18,3.72,1.4,6.76,5.44,8.05
		c1.01,0.32,1.66,1.78,3.13,3.48c-7.08,0-12.77,0-18.96,0c0-3.25,0-6.33,0-10.3c-2.63,2.2-4.49,3.81-6.41,5.34
		c-5.09,4.05-10.79,6.3-17.41,6.07c-7.51-0.26-13.23-4.12-15.16-10.39c-2.27-7.37,0.11-14.36,6.54-18.75
		c6.29-4.29,13.55-5.76,20.92-6.75C559.56,249.55,562.88,249.27,567.15,248.8z M566.52,254.02c-4.35,0.44-8.32,0.37-12.03,1.34
		c-3.96,1.04-8.18,2.39-11.37,4.81c-5.96,4.55-5.01,14.53,1.12,17.41c8.43,3.95,20.62-1.99,22.17-11.15
		C567.05,262.66,566.52,258.69,566.52,254.02z"/>
	<path class="st0" d="M894.91,236.27c-2.69,0-5.18,0-7.63,0c-1.73-7.07-1.36-8.05,4.78-10.77c9.17-4.07,18.55-7.07,28.79-4.99
		c6.49,1.32,10.64,5.3,11.38,11.77c0.79,6.91,0.75,13.92,0.91,20.9c0.14,6.01-0.01,12.02,0.07,18.03c0.06,4.51,0.64,8.72,6.03,10.24
		c0.78,0.22,1.22,1.68,2.24,3.21c-6.57,0-12.19,0-18.43,0c0-3.14,0-6.21,0-10.3c-2.52,2.12-4.17,3.53-5.84,4.91
		c-5.36,4.44-11.39,6.94-18.48,6.6c-7.22-0.35-12.92-4.28-14.77-10.36c-2.16-7.08-0.04-13.92,5.88-18.27
		c6.4-4.71,13.94-6.2,21.59-7.24c3.31-0.45,6.65-0.72,10.48-1.13c0.24-6.14,0.66-12.29-2.4-17.89c-3.98-7.28-16.5-7.47-21.5-0.4
		C896.82,232.26,896.01,234.23,894.91,236.27z M922.14,260.83c0.04-6.88,0.04-6.87-6.74-6.26c-1.11,0.1-2.29-0.03-3.32,0.3
		c-4.33,1.38-8.91,2.36-12.84,4.5c-4.4,2.4-5.83,8.06-4.33,12.9c1.29,4.18,4.57,6.23,10.14,6.33
		C915.4,278.79,922.08,271.84,922.14,260.83z"/>
	<path class="st0" d="M517.41,236.02c-4.39,0.6-7.53,0.74-9.53-4.58c-3.14-8.32-14.48-9.34-20.26-1.92
		c-2.71,3.48-4.89,8.09-5.41,12.42c-0.86,7.12-1.11,14.58,0.06,21.62c2.34,14.1,15.35,19.08,27.3,11.09
		c1.85-1.24,3.5-2.77,5.47-4.35c1.05,1.17,2.14,2.39,3.2,3.57c-6.77,9.79-19.25,14.17-31.24,11.08
		c-9.93-2.55-16.65-11.57-17.68-24.46c-0.4-4.98-0.55-10.16,0.33-15.04c3.31-18.34,16.46-27.66,35.14-25.42
		c0.69,0.08,1.38,0.24,2.07,0.33C519.07,221.94,520.08,223.39,517.41,236.02z"/>
	<path class="st0" d="M970.05,220.84c-0.21,3.87-0.4,7.41-0.6,10.96c0.3,0.34,0.61,0.69,0.91,1.03
		c7.28-9.84,16.37-15.04,28.81-12.37c0,4.89,0,9.7,0,14.72c-3.75,0.28-7.02,1.04-9.27-3.38c-1.89-3.72-6.8-4.48-10.72-2.15
		c-5.31,3.16-8.97,7.66-9.05,14.16c-0.12,9.51-0.05,19.03,0.03,28.54c0.04,4.38,1.31,7.97,6.26,9.17c0.93,0.23,1.59,1.54,3.18,3.19
		c-9.98,0-18.58,0-28.35,0c0.96-1.47,1.39-3.01,2.3-3.38c3.67-1.49,5.05-4.25,5.05-7.91c0.03-13.85,0.02-27.7,0.01-41.54
		c0-3.69-1.81-5.96-5.32-7.13c-0.95-0.32-1.64-1.43-2.45-2.17c0.96-0.57,1.9-1.61,2.87-1.64
		C958.99,220.75,964.28,220.84,970.05,220.84z"/>
	<path class="st0" d="M699.57,284.83c-9.52,0-17.74,0-27.25,0c1.1-1.64,1.55-3.18,2.47-3.54c3.55-1.38,4.97-4.11,5-7.52
		c0.11-14.12,0.09-28.24,0.04-42.35c-0.01-3.29-1.77-5.4-4.92-6.55c-1.09-0.4-1.92-1.53-2.86-2.32c1.21-0.6,2.4-1.68,3.63-1.73
		c5.01-0.2,10.03-0.08,15.66-0.08c0,1.51,0,2.99,0,4.47c0.02,15.38,0.05,30.76,0.04,46.13c0,4.6,0.64,8.68,5.99,10.21
		C698.13,281.77,698.54,283.24,699.57,284.83z"/>
	<path class="st0" d="M910.32,348.54c-4.16,0-8,0-13.03,0c4.89-2.77,4.18-6.66,4.19-10.31c0.01-3.49,0.09-7-0.12-10.48
		c-0.21-3.47-0.89-6.86-5.3-7.32c-3.11-0.32-7.65,2.87-7.91,6.29c-0.44,5.69-0.33,11.45-0.01,17.15c0.08,1.46,1.84,2.83,3.04,4.55
		c-4.07,0-7.96,0-11.98,0c4.88-5.66,4.65-26-0.67-30.89c3.22,0,6.01,0,9.08,0c0.09,1.35,0.19,2.8,0.3,4.35
		c12.56-6.51,14.34-6.46,18.86,0.66c1.59-1.26,3.1-2.59,4.74-3.75c3.09-2.18,6.53-2.57,9.93-1.02c3.34,1.53,4.14,4.7,4.19,8.07
		c0.07,4.89-0.2,9.81,0.2,14.67c0.22,2.62,1.52,5.15,2.38,7.85c-2.99,0-6.96,0-9.81,0c0.72-3.14,1.82-6.26,2.07-9.44
		c0.3-3.88-0.07-7.81-0.26-11.72c-0.17-3.47-1.18-6.46-5.32-6.8c-3.26-0.27-7.5,2.95-7.71,6.45c-0.35,5.7-0.28,11.46,0.05,17.16
		C907.32,345.46,909.08,346.8,910.32,348.54z"/>
	<path class="st0" d="M650.98,348.48c-4.09,0-7.99,0-10.92,0c0.7-3.05,1.76-6.01,1.99-9.03c0.34-4.44,0.09-8.93,0.08-13.4
		c0-3.23,0.58-6.74-3.7-8.46c2.91,0,5.83,0,8.9,0c0.06,1.37,0.12,2.83,0.18,4.03c3.44-1.59,6.6-3.64,10.06-4.51
		c4.22-1.06,6.99,1.74,8.8,5.33c2.37-1.67,4.35-3.51,6.69-4.62c6.27-2.97,11.77,0.42,12.29,7.64c0.35,4.87-0.11,9.79,0.25,14.66
		c0.2,2.76,1.32,5.46,2.06,8.31c-2.89,0-6.79,0-11.56,0c4.77-2.78,3.95-6.92,3.95-10.81c0-3.35-0.08-6.7-0.15-10.06
		c-0.07-3.29-0.85-6.37-4.59-7.01c-3.83-0.66-7.39,1.61-7.85,4.83c-0.91,6.4-0.55,13-0.36,19.51c0.03,1.1,1.85,2.15,3.15,3.56
		c-4.25,0-8.19,0-12.08,0c5.49-7.55,2.99-16,2.05-24.15c-0.17-1.47-3.3-3.61-5.11-3.66c-3.6-0.11-6.77,2.39-7.14,5.91
		c-0.62,5.8-0.37,11.72-0.05,17.56C648,345.5,649.78,346.83,650.98,348.48z"/>
	<path class="st0" d="M492.98,331.98c-2.42-2.05-4.04-4.27-6.16-4.98c-2.35-0.78-5.16-0.18-8.26-0.18c0,5.99-0.09,11.56,0.1,17.11
		c0.03,0.78,1.38,2.02,2.26,2.17c2.04,0.33,4.18,0.02,6.27,0.16c4.68,0.31,7.76-1.41,8.98-6.21c0.3-1.17,1.62-2.07,2.48-3.1
		c0.43,0.24,0.86,0.48,1.28,0.72c-0.28,3.56-0.56,7.11-0.87,11.08c-9.46,0-18.64,0.01-27.83-0.01c-0.62,0-1.24-0.17-0.75-0.1
		c0.78-3.13,2-5.95,2.09-8.8c0.26-8.94,0.1-17.88,0.09-26.83c0-3.29,0.4-6.75-4.5-8.85c1.68-0.26,2.16-0.41,2.64-0.41
		c9.34-0.01,18.67-0.01,28.34-0.01c0,3.32,0,6.3,0,10.22c-1.36-0.93-2.74-1.34-2.97-2.11c-1.48-4.82-4.96-5.85-9.44-5.71
		c-9.45,0.28-8.07-1.37-8.21,8.23c-0.04,3.04-0.01,6.08-0.01,9.06c5.89,1.39,10.78,1.29,13.66-5.24c0.27,0.35,0.53,0.7,0.8,1.05
		C492.98,323.13,492.98,327.04,492.98,331.98z"/>
	<path class="st0" d="M944.06,348.21c0.89,4.97-2.43,10.66,4.94,14.39c-5.14,0-9.28,0-14.11,0c4.83-2.85,3.98-7.29,4-11.42
		c0.05-7.97,0.04-15.94,0-23.91c-0.03-5.91-0.06-5.91-4.06-9.75c3.19,0,5.99,0,9.04,0c0.1,1.4,0.21,2.84,0.36,4.83
		c1.8-1.37,3.15-2.52,4.61-3.49c6.43-4.29,14.27-1.96,16.06,5.49c1.16,4.86,1.19,10.3,0.36,15.25c-1.09,6.49-5.96,9.58-12.91,9.48
		C949.87,349.03,947.38,348.57,944.06,348.21z M944.19,333.49c0.01,0,0.03,0,0.04,0c0,2.09-0.15,4.2,0.03,6.27
		c0.34,3.86,2.05,6.58,6.32,7.06c4.36,0.49,7.9-1.09,8.6-5.39c0.8-4.97,0.71-10.2,0.18-15.23c-0.41-3.86-3.36-6.03-7.47-5.76
		c-3.7,0.24-7.22,3.54-7.65,7.19C944.01,329.56,944.19,331.53,944.19,333.49z"/>
	<path class="st0" d="M600.5,362.7c3.7-2.12,3.6-5.54,3.6-8.89c0.02-9.21,0.01-18.42-0.01-27.64c-0.01-3.24,0.03-6.55-3.77-8.56
		c2.84,0,5.68,0,8.7,0c0.07,1.32,0.15,2.69,0.27,4.9c1.52-1.21,2.61-2.1,3.73-2.96c7.23-5.54,16.01-2.58,17.65,6.33
		c0.77,4.16,0.69,8.64,0.09,12.85c-0.9,6.3-5.49,10.03-11.88,10.25c-3.02,0.1-6.06-0.38-9.6-0.64c0.64,4.91-2.28,10.52,4.72,14.34
		C608.82,362.7,604.66,362.7,600.5,362.7z M609.32,333.76c-0.05,0-0.1,0-0.14,0c0.09,2.09,0.1,4.18,0.3,6.26
		c0.39,3.94,2.32,6.45,6.53,6.84c4.17,0.39,7.58-1.15,8.27-5.3c0.83-4.97,0.77-10.19,0.28-15.23c-0.37-3.85-3.25-6.1-7.37-5.91
		c-3.84,0.17-7.41,3.58-7.83,7.48C609.15,329.83,609.32,331.8,609.32,333.76z"/>
	<path class="st0" d="M537.2,362.76c-3.11,0-7.2,0-11.75,0c6.85-5.18,3.02-12.11,4.24-19.28c-2.16,1.64-3.39,2.66-4.71,3.55
		c-6.74,4.55-14.66,2.02-16.49-5.86c-1.04-4.47-1.14-9.49-0.3-14c1.44-7.67,8.44-11.34,17.19-10.09c2.82,0.4,5.66,0.59,9.08,0.94
		c0.04,0.73,0.17,2.19,0.17,3.66c0.02,10.89-0.14,21.78,0.13,32.67C534.83,357.07,536.29,359.74,537.2,362.76z M529.7,332.56
		c-0.09-0.01-0.18-0.01-0.28-0.02c0-1.82,0.12-3.64-0.02-5.45c-0.41-5.01-2.26-7.37-5.99-7.85c-4.5-0.59-8.19,1.33-9.05,6.11
		c-0.84,4.68-0.66,9.66-0.17,14.43c0.38,3.67,3.06,6,7.02,5.8c3.85-0.2,6.67-2.24,7.73-5.98
		C529.57,337.36,529.47,334.92,529.7,332.56z"/>
	<path class="st0" d="M728.22,348.45c5.51-5.02,5.2-26.25-0.37-30.89c3.43,0,6.36,0,9.34,0c0.08,1.42,0.16,2.88,0.27,4.86
		c2.04-1.55,3.57-2.95,5.3-3.99c6.39-3.84,12.73-1.05,13.61,6.29c0.59,4.97,0.09,10.06,0.48,15.07c0.22,2.87,1.26,5.68,1.96,8.64
		c-2.72,0-6.62,0-11.46,0c4.73-2.72,3.95-6.73,3.95-10.5c0-3.5,0.05-7-0.13-10.48c-0.23-4.51-2.29-6.95-5.63-7.04
		c-3.39-0.1-7.73,3.34-7.91,6.85c-0.27,5.44-0.28,10.91,0.08,16.34c0.11,1.6,1.82,3.1,2.94,4.87
		C736.73,348.45,732.83,348.45,728.22,348.45z"/>
	<path class="st0" d="M835.43,304.94c0,2.9,0,5.52,0,9.57c-1.72-1.41-3.05-1.99-3.52-2.97c-1.63-3.46-3.91-5.65-7.98-5.68
		c-4.25-0.03-7.39,1.91-9.11,5.57c-4.67,9.9-4.48,20.01-0.22,29.98c1.55,3.64,4.71,5.26,8.8,5.2c4.03-0.05,6.44-2.05,8.17-5.46
		c0.54-1.06,1.74-1.79,2.64-2.68c0.46,1.15,1.27,2.3,1.32,3.47c0.26,6.12,0.15,6.17-5.97,6.83c-0.42,0.05-0.84,0.03-1.25,0.08
		c-16.59,1.99-22.29-4.94-23.04-20.81c-0.15-3.17,0.21-6.46,0.93-9.55C809.28,305.16,820.43,299.97,835.43,304.94z"/>
	<path class="st0" d="M1019.29,348.57c-4.39,0-8.25,0-12.99,0c6.04-4.52,4.04-10.45,3.89-15.7c-0.14-5.04,2.73-11.14-4.81-15.28
		c3.99,0,6.75,0,9.87,0c0.1,1.26,0.21,2.72,0.37,4.79c1.72-1.31,3.07-2.41,4.49-3.41c3.21-2.26,6.75-2.8,10.31-1.21
		c3.54,1.58,4.27,4.94,4.33,8.43c0.08,4.89-0.19,9.8,0.18,14.66c0.19,2.47,1.47,4.86,2.31,7.46c-2.9,0-6.86,0-11.55,0
		c4.74-2.91,3.96-7.23,3.95-11.28c-0.01-3.21-0.15-6.42-0.32-9.63c-0.18-3.45-1.13-6.65-5.2-6.92c-3.91-0.25-7.38,2.02-7.87,5.59
		c-0.81,6.01-0.49,12.2-0.23,18.3C1016.08,345.65,1017.9,346.86,1019.29,348.57z"/>
	<path class="st0" d="M563.42,317.73c0.21-0.17,0.3-0.3,0.41-0.31c8.01-0.76,8-0.76,8.02,7.33c0.01,5.3-0.21,10.63,0.18,15.9
		c0.19,2.58,1.52,5.07,2.39,7.78c-1.73,0-4.49,0-7.58,0c-0.1-1.28-0.22-2.75-0.39-4.85c-1.61,1.26-2.85,2.27-4.12,3.23
		c-3.27,2.47-6.95,3.11-10.65,1.5c-3.7-1.62-4.38-5.18-4.43-8.8c-0.07-4.6,0.21-9.23-0.14-13.81c-0.2-2.64-1.36-5.2-2.26-8.41
		c1.38,0,3.69-0.33,5.82,0.16c0.84,0.2,1.73,2.21,1.79,3.44c0.26,5.85,0.2,11.72,0.32,17.58c0.08,3.66,1.13,6.73,5.44,7.11
		c3.55,0.32,7.96-3.23,8.16-7c0.29-5.29,0.28-10.62-0.09-15.89C566.17,321.04,564.49,319.49,563.42,317.73z"/>
	<path class="st0" d="M843.25,336.6c-0.74-14.25,6.2-21,17.5-19.49c1.23,0.16,2.48,0.49,3.61,0.99c7.27,3.26,9.93,16.02,5.15,24.48
		c-3.67,6.5-14.18,8.8-20.69,4.48C844.22,344,843.34,339.22,843.25,336.6z M866.47,333.33c-0.88-3.37-1.21-7.02-2.82-9.95
		c-1.07-1.95-4.02-4-6.08-3.96c-2.27,0.05-5.54,1.92-6.55,3.92c-3.15,6.26-3.04,13.11,0.13,19.34c1.02,2.01,4.28,3.89,6.56,3.94
		c2.07,0.05,4.97-2.01,6.12-3.95C865.38,340.03,865.62,336.62,866.47,333.33z"/>
	<path class="st0" d="M973.99,323.54c0.98-1.29,1.71-3.32,2.97-3.72c4.07-1.29,8.29-2.5,12.52-2.75c4.82-0.29,7.25,2.22,7.55,7.06
		c0.34,5.58,0.03,11.2,0.46,16.77c0.19,2.47,1.52,4.85,2.38,7.42c-1.57,0-4.16,0-6.92,0c-0.2-1.21-0.41-2.52-0.7-4.29
		c-1.94,1.36-3.43,2.57-5.06,3.52c-4.01,2.33-9.55,2.02-12.17-0.58c-3.77-3.73-2.7-10.24,2.64-12.54c4.28-1.85,9.04-2.59,14.26-4.01
		c0.38-3.1,0.63-6.84-2.43-9.73c-2.53-2.39-7.24-1.38-9.69,1.5c-1.07,1.26-2.61,2.11-3.93,3.15
		C975.25,324.73,974.62,324.14,973.99,323.54z M991.75,333.04c-3.79,0.97-7.33,1.5-10.53,2.81c-2.79,1.15-3.79,4.24-2.45,6.68
		c0.88,1.6,3.59,2.99,5.53,3.06C989.86,345.79,992.54,341.49,991.75,333.04z"/>
	<path class="st0" d="M721.38,332.15c-6.42,0-12.93,0-19.28,0c-1.4,5.32-0.19,9.96,3.2,11.98c5.3,3.17,9.9,1.09,15.09-3.24
		c-0.25,1.88-0.03,3.1-0.54,3.63c-4.39,4.63-9.89,5.5-15.79,3.93c-4.81-1.28-7.96-5.64-8.22-11.45c-0.15-3.44-0.16-7.07,0.75-10.34
		c2.16-7.81,9.8-11.64,17.53-9.3C719.41,318.97,722.23,324.46,721.38,332.15z M715.83,329.63c0.07-7.41-2.4-10.87-7.09-10.48
		c-4.6,0.38-7.51,4.85-6.73,10.48C706.53,329.63,711.06,329.63,715.83,329.63z"/>
	<path class="st0" d="M769.63,320.62c-2.04-0.24-3.37-0.4-3.81-0.45c1.4-2.96,2.65-6.08,4.33-8.95c0.66-1.12,2.27-1.69,4.18-3.02
		c0.22,3.71,0.36,6.03,0.54,9.07c2.82,0,5.55-0.12,8.26,0.08c0.77,0.06,1.48,1.05,2.21,1.61c-0.7,0.44-1.38,1.22-2.11,1.26
		c-2.63,0.15-5.27,0.06-8.86,0.06c0.33,7.4,0.37,14.46,1.08,21.45c0.34,3.33,3.44,4.55,6.76,3.46c1.07-0.35,2.11-0.79,3.76-1.41
		c-2.4,4.44-6.25,6.06-10.77,5.07c-3.94-0.86-5.45-3.78-5.54-7.37C769.51,334.65,769.63,327.83,769.63,320.62z"/>
	<path class="st0" d="M580.69,317.45c3.91,0,6.6,0,9.56,0c2.23,9.94-2.33,20.93,2.88,30.93c-3.09,0-6.97,0-11.53,0
		c5.91-4.3,3.84-10.22,3.74-15.43C585.24,327.81,587.93,321.71,580.69,317.45z"/>
	<path class="st0" d="M679.92,206.8c0-4.14,0-7.86,0-11.9c3.79,0,7.44,0,11.38,0c0,3.9,0,7.72,0,11.9
		C687.6,206.8,683.96,206.8,679.92,206.8z"/>
	<path class="st0" d="M590.56,310.03c-1.8,0-3.38,0-5.18,0c0-1.83,0-3.43,0-5.32c1.71,0,3.29,0,5.18,0
		C590.56,306.36,590.56,307.95,590.56,310.03z"/>
</g>
<text transform="matrix(1 0 0 1 563.4146 454.2656)" class="st0 st1 st2">About Us</text>
</svg>
