<svg id="Layer_1_Image" data-name="Layer 1 Image" xmlns="http://www.w3.org/2000/svg" viewBox="0 0 977.08 444.3"><defs><style>.cls-1,.cls-2{fill:#fff;}.cls-2{font-size:97.79px;font-family:Cambria-Bold, Cambria;font-weight:700;}.cls-3{letter-spacing:-0.02em;}.cls-4{letter-spacing:-0.02em;}.cls-5{letter-spacing:0em;}.cls-6{letter-spacing:-0.01em;}.cls-7{letter-spacing:-0.01em;}</style></defs><path class="cls-1" d="M302.85,39.18Q316.42,72.53,330,105.86q20.39,49.79,40.85,99.56c.5,1.22.93,2.49,1.58,4.24-8.6-2.36-16.28-.26-23.74,2.56-3.19,1.2-6.87,2.91-8.7,5.52-3.37,4.8-7.66,4.61-12.52,4.8-5.63.22-8.37-1.71-10.51-7.2-9-23.14-18.72-46-28.18-69-.56-1.36-1.23-2.68-2.21-4.83L270,181.84c-4.94,12-10,24-14.75,36-1.16,2.93-2.42,4.6-5.92,4.4-3.17-.17-6.38.47-9.4.73-9.91-14.45-17.68-18.25-37.06-18,.61-1.65,1.12-3.14,1.71-4.59Q236.77,122,269,43.52a33,33,0,0,0,1.17-4.34Z" transform="translate(-97.2 -39.18)"/><path class="cls-1" d="M97.2,460.57c2-4.41,4.12-8.76,6-13.23Q133,374.71,162.76,302c1.29-3.19,2.85-4.14,6.31-4.33,9.17-.51,18.3-1.74,27.45-2.66.76-.08,1.84-.31,2.26.08,6.06,5.61,13.61,6.59,21.83,7-3.69,9-7.28,17.72-10.88,26.46L155.12,461.41q-27.3,0-54.6,0A14.33,14.33,0,0,1,97.2,460.57Z" transform="translate(-97.2 -39.18)"/><path class="cls-1" d="M417.85,461.41C411.91,446.66,406,431.88,400,417.16q-21.92-53.51-43.94-107c-.57-1.4-1-2.84-1.65-4.58,7.52-.22,14.38-1.57,20-6.6a2.67,2.67,0,0,1,2.25-.33c9.86,3.68,20.14,2.67,30.3,2.61,2.55,0,3.68.82,4.61,3.08q31.82,77.73,63.74,155.43a12.32,12.32,0,0,1,.44,1.61Z" transform="translate(-97.2 -39.18)"/><path class="cls-1" d="M1074.28,285.13c-7.41-.06-14.82-.08-22.22-.22a12.88,12.88,0,0,1-3.31-1c.67-.9,1.67-1.7,1.92-2.7.41-1.69,1.12-4,.34-5.17-5.14-7.47-10.43-14.88-16.21-21.86-1.34-1.61-4.74-1.63-7.25-2-.51-.09-1.85,1.33-1.84,2,.06,7.26,0,14.54.73,21.75.17,1.82,2.71,3.43,4.22,5.09.9,1,1.9,1.88,2.86,2.81l-.75.94H1006.2c1.45-1.73,2.07-3.15,3.12-3.59a7.07,7.07,0,0,0,4.78-6.71c.18-4.19.47-8.37.48-12.56q0-26.64-.06-53.27c0-2.51-.24-5-.37-7.54-.22-4-1.78-6.92-6.14-7.84-.86-.18-1.46-1.57-2.18-2.41.9-.43,1.79-1.21,2.7-1.23,5.54-.12,11.08-.06,17.13-.06v58c1.73,0,3,.11,4.18,0,5.39-.54,17.48-11.61,18.53-17,.57-2.94-.13-5.21-3.31-6.31-.69-.24-1.09-1.33-1.62-2,.74-.44,1.49-1.25,2.24-1.26q12-.13,23.91,0c.72,0,1.44.88,2.15,1.35-.53.71-.92,1.76-1.63,2.06-11.3,4.87-18.18,14.94-27.65,22.74,8.17,10.36,15.87,20.46,24,30.2,1.8,2.14,5.16,3,7.81,4.42Z" transform="translate(-97.2 -39.18)"/><path class="cls-1" d="M1074.28,318.71c-1.5,1.5-3.55,2.73-4.41,4.54-4,8.42-7.75,17-11.62,25.53-1.21,2.66-2.42,5.35-3.88,7.88-3.33,5.78-6,7-13.1,6.08v-6.2c1,.34,2.13.41,2.68,1,2.27,2.5,4.39,1.63,6-.4,3-3.7,5.6-7.34,3-12.79-2.86-5.87-4.59-12.28-7-18.36-1.16-2.88-2.83-5.55-4.32-8.41h13.36c-5.44,2.46-4.52,5.75-3.27,9.16,1.81,4.94,3.58,9.89,5.36,14.84l1.16.21c2.39-6.25,5-12.44,7-18.83.42-1.36-1.42-3.43-2.56-5.94h11.64Z" transform="translate(-97.2 -39.18)"/><path class="cls-1" d="M401.18,293.35c-5.27-.56-12.21-1.2-19.11-2.08-5.4-.7-8.65-4-10.37-9.11a79.36,79.36,0,0,1-3.62-33.87A96,96,0,0,1,371.63,232a5.33,5.33,0,0,1,3.79-2.95c15.86-1.72,30.77-6.52,45.14-13.29a74.76,74.76,0,0,1,10-4.24c8.75-2.65,15.94.27,18.95,8.9,2.34,6.72,4,14.15,3.78,21.18-.36,9.79-2.43,19.59-4.46,29.23-2.91,13.74-11.9,20.44-25.89,20.89C416.25,292,409.58,292.72,401.18,293.35Z" transform="translate(-97.2 -39.18)"/><path class="cls-1" d="M169,289.63c-7.52-.85-16.94-1.9-26.37-3-7.18-.83-11.94-4.84-15-11.25a76.38,76.38,0,0,1-7.53-31.13c-.19-7.75.13-15.75,1.9-23.24,3.12-13.25,12.53-17.42,24.9-11.69,12.7,5.88,25.47,11.42,39.31,14.06a58.31,58.31,0,0,0,9.51,1.38c3.87.08,5.79,1.91,6.88,5.39,3.27,10.49,3.3,21.21,2.34,32a76.09,76.09,0,0,1-2.2,12.35c-2.6,9.94-6,12.8-16.28,13.85C181.36,288.86,176.19,289.11,169,289.63Z" transform="translate(-97.2 -39.18)"/><path class="cls-1" d="M243.41,283.29c.85-9.65,1.51-19,2.6-28.23.24-2.07,2.09-3.92,3.08-5.93,1.72-3.47,3.18-7.06,5.07-10.43,1.15-2,2.88-3.76,4.67-6,1.37,4.11,2.24,7.32,3.5,10.36,3.19,7.66,6.56,15.24,9.86,22.85l1.27.06,5.83-34.39,11.93,40.81,1.19-.06c1-13,1.13-26.22,5.54-38.69l1.24-.16c1.76,9.5,3.51,19,5.22,28.3,1.58-9.82,3.21-19.93,4.84-30,4.08,8.93,3.29,19.27,10.28,27.53,1.08-7.19,2.09-13.86,3.09-20.52l1.24-.26c1.12,3.69,2.89,7.32,3.25,11.09,1.06,11.08,1.57,22.21,2.37,34.37-5.4.1-11.59.11-17.77.4a16.1,16.1,0,0,0-5.53,1.47c-13.12,5.81-26.16,5.74-39.32,0a17.64,17.64,0,0,0-7.56-1.05c-3.87.17-7.64,1.3-11.36-1.12C246.74,282.86,244.7,283.36,243.41,283.29Z" transform="translate(-97.2 -39.18)"/><path class="cls-1" d="M642.24,222.63c-.41-8.51-.5-16.43-1.41-24.26-.21-1.8-3.25-3.27-5-4.89l-2.7-2.5c1-.47,2-1.32,3-1.35,5.41-.13,10.83-.06,16.76-.06v4.86q0,35.88,0,71.76c0,2.66.15,5.31.32,8,.22,3.58,1.9,5.94,5.52,7,1.13.33,1.92,1.77,2.87,2.69l-.73,1.26H642.23v-11.5c-2,1.85-3.26,3-4.52,4.19-4.49,4.2-9.52,7.42-15.78,8-10.93,1-19.09-4.47-22.57-15.34A51.72,51.72,0,0,1,598,243.12c4.07-18.25,19.16-26.91,38.05-22.05Zm-.11,28.18c-.26-4.28-.38-9.3-.93-14.28s-2.87-8.68-7.68-10.58c-8.24-3.27-17.31-.17-20.83,8-5.23,12.06-4.8,24.46-.1,36.62,1.94,5,6.1,7.46,11.45,7.75a16.78,16.78,0,0,0,17.41-14.21C642,260,641.9,255.74,642.13,250.81Z" transform="translate(-97.2 -39.18)"/><path class="cls-1" d="M810.47,194.43c14.81,0,29.36-.88,43.75.26,12.46,1,18.95,8.46,20.08,19.43,1.39,13.5-4.68,24.52-15.88,28.95-7.36,2.9-15,2.7-22.73,2.58-1.52,0-3,0-4.64,0,0,10.11-.3,20,.26,29.77.11,2,3.45,3.8,5.31,5.69.86.87,1.75,1.72,2.62,2.58-1,.42-2,1.2-3,1.22q-11.33.15-22.64,0c-1,0-2.09-.76-3.13-1.17.72-.85,1.28-2.19,2.18-2.47,3.63-1.15,5-3.71,5.3-7.22.15-2.09.36-4.18.36-6.27q0-28.72,0-57.44c0-5.76.4-11.83-7.12-13.77-.29-.07-.54-.62-.64-1A4,4,0,0,1,810.47,194.43Zm20.16,45.36c12.38,2.38,23.56-.82,27.77-7.73s4-20.22-.92-26.33c-7.23-8.94-17.24-6.27-26.85-6.44Z" transform="translate(-97.2 -39.18)"/><path class="cls-1" d="M205.82,291.09a107.86,107.86,0,0,0,9.31-43.83c0-10.55-2.79-19.81-10.88-27.08-1.1-1-2.45-3.55-2.11-3.92,1.19-1.27,3.12-2.74,4.68-2.65,14.87.89,23.2,3.93,26.37,17.88,3.52,15.46,5,30.9.59,46.37-2.07,7.2-5.46,14-14,14.91C215.5,293.23,211,291.78,205.82,291.09Z" transform="translate(-97.2 -39.18)"/><path class="cls-1" d="M365.69,294.21c-8.09,5.58-18.16,3.44-23.45-5.82-4.13-7.26-5.08-15.34-5.42-23.44a105.7,105.7,0,0,1,3.74-31.46c2.07-7.86,6.71-12.73,14.54-14.4a79.36,79.36,0,0,1,12.36-1.61c1.22-.06,2.93,1.19,3.62,2.32.39.66-.48,2.67-1.35,3.41-12.09,10.43-13,24.27-11,38.46C360.22,272.5,363.25,283.11,365.69,294.21Z" transform="translate(-97.2 -39.18)"/><path class="cls-1" d="M749.21,248.78c-.63-5.23-.88-10.36-1.94-15.31s-4.86-7.35-9.73-7.87c-5.5-.59-10.92.51-13.22,5.88s-5.74,5.51-10.24,4.69c-1.87-6.83-1.39-8,4.91-10.78,8.51-3.8,17.28-6.61,26.74-5.2,8.78,1.3,13.23,5.94,13.64,14.8.53,11.16.44,22.34.64,33.51,0,2,.09,3.91.21,5.87A7.14,7.14,0,0,0,765,281.1c1.19.48,2.09,1.66,3.12,2.52l-.7,1.09h-17.7V274.44c-2.17,1.81-3.61,3-5,4.18-5.47,4.76-11.65,7.56-19.07,7.26s-13-4.15-15-10.59a15.91,15.91,0,0,1,6.08-18.18c6.43-4.63,14-6.14,21.63-7.13C741.66,249.55,745,249.25,749.21,248.78Zm-.63,4.76c-6.4,1.12-12.19,1.82-17.78,3.28a15.55,15.55,0,0,0-6.91,4.4c-4.71,5-3.19,14,2.47,16.44,8.75,3.83,20.7-2.36,22.12-11.75C749,262.27,748.58,258.47,748.58,253.54Z" transform="translate(-97.2 -39.18)"/><path class="cls-1" d="M567.15,248.8c-.46-4.93-.52-9.56-1.42-14-1.17-5.8-4.4-8.54-10-9.17s-11,.39-13.26,5.77-5.86,5.72-10.5,4.69c-1.61-7.15-1.35-7.84,5.2-10.73,8.91-3.92,18-6.84,28-4.91,7.1,1.38,11.45,5.39,12,12.6.74,10.15.63,20.37.87,30.55.07,3.22,0,6.44.11,9.65.18,3.72,1.39,6.75,5.44,8,1,.33,1.66,1.79,3.14,3.49h-19v-10.3c-2.63,2.2-4.48,3.81-6.4,5.34A25.75,25.75,0,0,1,544,285.88c-7.51-.26-13.23-4.11-15.15-10.39a16,16,0,0,1,6.54-18.75c6.29-4.29,13.54-5.75,20.92-6.75C559.56,249.55,562.88,249.27,567.15,248.8Zm-.63,5.22c-4.35.44-8.33.37-12,1.35-4,1-8.18,2.38-11.37,4.81-6,4.55-5,14.53,1.13,17.41,8.43,4,20.61-2,22.16-11.16C567.05,262.66,566.52,258.69,566.52,254Z" transform="translate(-97.2 -39.18)"/><path class="cls-1" d="M894.91,236.27h-7.64c-1.73-7.06-1.36-8,4.78-10.77,9.17-4.07,18.55-7.06,28.8-5,6.49,1.31,10.64,5.3,11.38,11.77.79,6.91.75,13.92.91,20.89.14,6,0,12,.07,18,.06,4.51.64,8.73,6,10.24.79.22,1.22,1.68,2.25,3.21H923.06v-10.3c-2.52,2.12-4.17,3.53-5.84,4.91-5.36,4.44-11.39,6.94-18.48,6.6s-12.91-4.28-14.77-10.36c-2.16-7.08,0-13.91,5.88-18.27,6.4-4.71,13.94-6.2,21.59-7.24,3.31-.45,6.65-.73,10.48-1.13.24-6.15.66-12.29-2.4-17.9-4-7.28-16.5-7.47-21.5-.4A55,55,0,0,0,894.91,236.27Zm27.23,24.56c0-6.87,0-6.87-6.74-6.26a15.72,15.72,0,0,0-3.32.3c-4.33,1.38-8.91,2.35-12.84,4.5-4.41,2.4-5.83,8.06-4.34,12.9,1.3,4.18,4.57,6.23,10.15,6.33C915.4,278.79,922.08,271.84,922.14,260.83Z" transform="translate(-97.2 -39.18)"/><path class="cls-1" d="M517.41,236c-4.39.6-7.53.74-9.53-4.58-3.14-8.32-14.49-9.35-20.27-1.92a26.49,26.49,0,0,0-5.4,12.42,77.13,77.13,0,0,0,.05,21.62c2.35,14.1,15.35,19.09,27.3,11.09,1.85-1.24,3.5-2.77,5.47-4.35l3.2,3.58C511.46,283.67,499,288,487,285c-9.93-2.56-16.65-11.57-17.68-24.46a59,59,0,0,1,.33-15c3.3-18.34,16.46-27.66,35.14-25.43.69.09,1.38.25,2.07.33C519.07,221.94,520.08,223.39,517.41,236Z" transform="translate(-97.2 -39.18)"/><path class="cls-1" d="M970.05,220.84c-.21,3.87-.4,7.41-.6,11l.91,1c7.28-9.84,16.37-15,28.81-12.37v14.72c-3.75.28-7,1-9.27-3.38-1.89-3.73-6.8-4.48-10.71-2.15-5.31,3.15-9,7.66-9.06,14.16-.12,9.51,0,19,0,28.53,0,4.38,1.31,8,6.25,9.17.93.22,1.6,1.54,3.18,3.19H951.25c1-1.48,1.39-3,2.3-3.39,3.67-1.48,5-4.24,5.05-7.9q0-20.78,0-41.55c0-3.69-1.81-6-5.32-7.13-.95-.32-1.64-1.43-2.45-2.17,1-.57,1.9-1.61,2.88-1.64C959,220.75,964.28,220.84,970.05,220.84Z" transform="translate(-97.2 -39.18)"/><path class="cls-1" d="M699.57,284.83H672.32c1.1-1.64,1.56-3.18,2.47-3.54,3.55-1.38,5-4.11,5-7.51.11-14.12.09-28.24,0-42.36,0-3.29-1.77-5.4-4.92-6.54-1.09-.4-1.92-1.53-2.86-2.33,1.21-.6,2.4-1.68,3.63-1.72,5-.2,10-.09,15.66-.09,0,1.51,0,3,0,4.47q0,23.07,0,46.13c0,4.61.64,8.69,6,10.21C698.13,281.77,698.54,283.24,699.57,284.83Z" transform="translate(-97.2 -39.18)"/><path class="cls-1" d="M910.32,348.54h-13c4.89-2.77,4.18-6.66,4.19-10.31,0-3.49.09-7-.12-10.48s-.88-6.86-5.29-7.31c-3.11-.33-7.65,2.86-7.92,6.28a129.14,129.14,0,0,0,0,17.15c.08,1.47,1.83,2.83,3,4.55h-12c4.88-5.65,4.65-26-.67-30.89h9.08q.15,2,.3,4.35c12.56-6.51,14.34-6.46,18.86.66,1.59-1.26,3.1-2.59,4.74-3.75a9.58,9.58,0,0,1,9.93-1c3.34,1.53,4.14,4.71,4.19,8.08.07,4.89-.2,9.8.2,14.66.21,2.62,1.52,5.16,2.37,7.85h-9.8c.72-3.14,1.82-6.25,2.07-9.43a95.64,95.64,0,0,0-.26-11.72c-.17-3.47-1.18-6.46-5.32-6.8-3.26-.27-7.49,2.95-7.71,6.45a146.64,146.64,0,0,0,.06,17.16C907.32,345.46,909.08,346.8,910.32,348.54Z" transform="translate(-97.2 -39.18)"/><path class="cls-1" d="M651,348.48H640.06c.7-3.05,1.76-6,2-9,.33-4.44.08-8.93.08-13.4,0-3.23.58-6.74-3.71-8.47h8.91c.06,1.37.12,2.83.17,4,3.44-1.6,6.61-3.64,10.07-4.52,4.22-1.06,7,1.75,8.8,5.33,2.37-1.67,4.36-3.51,6.69-4.62,6.26-3,11.77.42,12.29,7.65.35,4.86-.11,9.79.25,14.65.2,2.76,1.32,5.46,2.06,8.31H676.1c4.78-2.78,4-6.92,4-10.81,0-3.35-.08-6.7-.15-10.06s-.85-6.36-4.59-7-7.39,1.61-7.85,4.83c-.92,6.39-.56,13-.37,19.5,0,1.11,1.86,2.16,3.16,3.56H658.18c5.49-7.55,3-16,2.05-24.15-.18-1.47-3.3-3.6-5.11-3.66a6.82,6.82,0,0,0-7.15,5.91,109.51,109.51,0,0,0-.05,17.56C648,345.5,649.78,346.83,651,348.48Z" transform="translate(-97.2 -39.18)"/><path class="cls-1" d="M493,332c-2.42-2.05-4-4.28-6.16-5-2.35-.78-5.16-.17-8.26-.17,0,6-.09,11.55.1,17.1,0,.79,1.38,2,2.26,2.17,2.05.34,4.19,0,6.27.16,4.69.31,7.76-1.41,9-6.21.3-1.17,1.62-2.07,2.48-3.1l1.28.72c-.28,3.56-.56,7.11-.88,11.08-9.45,0-18.64,0-27.83,0-.62,0-1.23-.17-.74-.09.77-3.13,2-5.95,2.08-8.81.27-8.93.11-17.88.1-26.82,0-3.29.39-6.75-4.5-8.86,1.67-.26,2.15-.4,2.63-.4,9.34,0,18.68,0,28.35,0V314c-1.37-.93-2.74-1.34-3-2.1-1.47-4.82-5-5.85-9.44-5.72-9.45.28-8.07-1.37-8.2,8.23,0,3,0,6.09,0,9.06,5.89,1.39,10.78,1.29,13.66-5.24l.8,1.05Z" transform="translate(-97.2 -39.18)"/><path class="cls-1" d="M944.06,348.21c.89,5-2.42,10.67,4.94,14.39H934.89c4.84-2.85,4-7.29,4-11.42.05-8,0-15.94,0-23.92,0-5.91-.06-5.91-4.06-9.75h9c.1,1.4.21,2.84.36,4.83,1.8-1.37,3.15-2.52,4.61-3.49,6.43-4.29,14.26-2,16,5.49a39.13,39.13,0,0,1,.36,15.25c-1.09,6.49-6,9.58-12.91,9.48C949.87,349,947.38,348.57,944.06,348.21Zm.13-14.72h0c0,2.09-.14,4.19,0,6.27.33,3.86,2.05,6.58,6.31,7.06s7.91-1.09,8.6-5.39a58.36,58.36,0,0,0,.18-15.23c-.42-3.86-3.37-6-7.48-5.76a8.67,8.67,0,0,0-7.65,7.19A52,52,0,0,0,944.19,333.49Z" transform="translate(-97.2 -39.18)"/><path class="cls-1" d="M600.5,362.7c3.7-2.12,3.6-5.54,3.6-8.88q0-13.81,0-27.64c0-3.24,0-6.54-3.77-8.56H609c.08,1.33.15,2.7.28,4.9,1.52-1.2,2.61-2.1,3.73-3,7.23-5.54,16-2.58,17.65,6.33a40.43,40.43,0,0,1,.09,12.85c-.9,6.3-5.49,10-11.88,10.25a94.77,94.77,0,0,1-9.6-.63c.64,4.91-2.28,10.52,4.72,14.34Zm8.82-28.94h-.14c.09,2.09.1,4.18.3,6.26.39,3.94,2.32,6.45,6.53,6.84s7.58-1.15,8.27-5.3a59.16,59.16,0,0,0,.28-15.22c-.37-3.85-3.25-6.1-7.37-5.92a8.69,8.69,0,0,0-7.83,7.48A54.5,54.5,0,0,0,609.32,333.76Z" transform="translate(-97.2 -39.18)"/><path class="cls-1" d="M537.2,362.76H525.45c6.85-5.18,3-12.1,4.24-19.27-2.17,1.63-3.39,2.66-4.71,3.55-6.74,4.55-14.66,2-16.49-5.86a35.06,35.06,0,0,1-.3-14c1.44-7.68,8.44-11.35,17.19-10.09,2.82.4,5.67.59,9.08.93,0,.73.17,2.19.17,3.66,0,10.89-.14,21.78.13,32.67C534.83,357.07,536.29,359.74,537.2,362.76Zm-7.5-30.2-.28,0c0-1.81.13-3.64,0-5.44-.41-5-2.27-7.37-6-7.86-4.5-.58-8.18,1.33-9,6.11a52,52,0,0,0-.16,14.43c.37,3.67,3,6,7,5.8a7.89,7.89,0,0,0,7.72-6C529.57,337.36,529.47,334.92,529.7,332.56Z" transform="translate(-97.2 -39.18)"/><path class="cls-1" d="M728.22,348.45c5.51-5,5.2-26.25-.38-30.89h9.35c.08,1.41.16,2.87.27,4.85a66.16,66.16,0,0,1,5.3-4c6.4-3.84,12.73-1.05,13.61,6.29.59,5,.09,10.06.48,15.07.22,2.87,1.26,5.68,1.95,8.63H747.34c4.73-2.72,3.95-6.73,3.95-10.5,0-3.49.05-7-.13-10.48-.23-4.51-2.29-6.95-5.63-7.05s-7.74,3.35-7.91,6.86a141.39,141.39,0,0,0,.08,16.34c.1,1.6,1.81,3.09,2.93,4.87Z" transform="translate(-97.2 -39.18)"/><path class="cls-1" d="M835.43,304.94v9.57c-1.72-1.41-3-2-3.51-3-1.63-3.47-3.91-5.65-8-5.68a9.36,9.36,0,0,0-9.12,5.57c-4.67,9.9-4.48,20-.22,30,1.55,3.64,4.71,5.26,8.8,5.21s6.44-2.05,8.17-5.47c.54-1.06,1.74-1.79,2.64-2.67.46,1.15,1.27,2.29,1.32,3.46.26,6.13.15,6.17-6,6.84-.42,0-.84,0-1.26.08-16.59,2-22.28-4.94-23-20.81a35.69,35.69,0,0,1,.93-9.55C809.28,305.16,820.43,300,835.43,304.94Z" transform="translate(-97.2 -39.18)"/><path class="cls-1" d="M1019.29,348.57h-13c6-4.52,4-10.46,3.89-15.7-.14-5,2.73-11.15-4.81-15.28h9.87c.1,1.26.22,2.72.38,4.79,1.72-1.32,3.06-2.42,4.48-3.41a10,10,0,0,1,10.32-1.22c3.53,1.59,4.27,4.94,4.33,8.43.08,4.89-.2,9.8.18,14.66.19,2.47,1.46,4.86,2.31,7.46h-11.56c4.74-2.91,4-7.23,4-11.28,0-3.21-.15-6.42-.32-9.63-.18-3.45-1.13-6.65-5.19-6.91s-7.39,2-7.87,5.59c-.82,6-.49,12.2-.23,18.3C1016.08,345.65,1017.9,346.86,1019.29,348.57Z" transform="translate(-97.2 -39.18)"/><path class="cls-1" d="M563.42,317.73c.21-.17.3-.31.41-.32,8-.76,8-.76,8,7.34,0,5.3-.2,10.62.18,15.9.19,2.58,1.52,5.07,2.39,7.78h-7.58c-.1-1.28-.22-2.75-.38-4.85-1.61,1.27-2.86,2.27-4.13,3.23a10.13,10.13,0,0,1-10.65,1.5c-3.7-1.62-4.37-5.18-4.43-8.8-.07-4.61.21-9.23-.14-13.81-.2-2.64-1.36-5.2-2.26-8.41a23.5,23.5,0,0,1,5.82.17c.85.19,1.73,2.21,1.79,3.43.26,5.85.2,11.72.32,17.58.08,3.66,1.13,6.73,5.44,7.11,3.55.31,8-3.23,8.16-7a127.65,127.65,0,0,0-.09-15.89C566.17,321,564.49,319.49,563.42,317.73Z" transform="translate(-97.2 -39.18)"/><path class="cls-1" d="M843.25,336.6c-.75-14.25,6.19-21,17.49-19.49a12.81,12.81,0,0,1,3.61,1c7.28,3.26,9.94,16,5.16,24.48-3.67,6.5-14.18,8.8-20.69,4.47A12.81,12.81,0,0,1,843.25,336.6Zm23.22-3.27c-.88-3.38-1.2-7-2.82-10-1.07-1.94-4-4-6.08-3.95-2.28.05-5.55,1.92-6.55,3.92a20.91,20.91,0,0,0,.13,19.34c1,2,4.28,3.88,6.56,3.94,2.07.05,5-2,6.12-4C865.38,340,865.62,336.62,866.47,333.33Z" transform="translate(-97.2 -39.18)"/><path class="cls-1" d="M974,323.54c1-1.28,1.72-3.32,3-3.72a53,53,0,0,1,12.52-2.75c4.82-.3,7.25,2.22,7.55,7.05.34,5.58,0,11.2.46,16.77.2,2.47,1.52,4.85,2.38,7.42H993c-.2-1.21-.41-2.52-.7-4.29-1.94,1.36-3.43,2.57-5.06,3.52-4,2.33-9.55,2-12.17-.58a7.67,7.67,0,0,1,2.64-12.54c4.28-1.85,9-2.59,14.26-4,.37-3.1.63-6.85-2.43-9.74-2.53-2.39-7.24-1.38-9.68,1.5a25.44,25.44,0,0,1-3.94,3.15Zm17.76,9.5c-3.8,1-7.33,1.49-10.53,2.81a4.71,4.71,0,0,0-2.45,6.68c.88,1.6,3.59,3,5.53,3.06C989.86,345.79,992.54,341.49,991.75,333Z" transform="translate(-97.2 -39.18)"/><path class="cls-1" d="M721.38,332.15H702.1c-1.4,5.32-.19,10,3.2,12,5.3,3.17,9.9,1.09,15.08-3.24-.24,1.88,0,3.1-.54,3.63-4.39,4.64-9.89,5.51-15.79,3.93-4.8-1.27-8-5.63-8.21-11.44a33.7,33.7,0,0,1,.75-10.34c2.15-7.82,9.8-11.65,17.52-9.3C719.42,319,722.23,324.46,721.38,332.15Zm-5.55-2.52c.07-7.41-2.39-10.87-7.09-10.48s-7.5,4.85-6.73,10.48Z" transform="translate(-97.2 -39.18)"/><path class="cls-1" d="M769.63,320.62l-3.8-.45c1.39-3,2.65-6.08,4.33-8.95.65-1.13,2.26-1.69,4.18-3,.22,3.71.36,6,.55,9.06,2.81,0,5.55-.12,8.26.08.77.06,1.47,1.05,2.21,1.62-.7.44-1.38,1.22-2.11,1.26-2.63.15-5.27.06-8.86.06.33,7.4.37,14.46,1.08,21.45.34,3.33,3.44,4.55,6.76,3.45,1.07-.35,2.11-.78,3.77-1.41-2.41,4.44-6.26,6.06-10.77,5.08-4-.87-5.46-3.78-5.55-7.38C769.51,334.65,769.63,327.83,769.63,320.62Z" transform="translate(-97.2 -39.18)"/><path class="cls-1" d="M580.69,317.45h9.56c2.23,9.94-2.34,20.93,2.88,30.94H581.6c5.91-4.3,3.84-10.22,3.74-15.43S587.93,321.71,580.69,317.45Z" transform="translate(-97.2 -39.18)"/><path class="cls-1" d="M679.92,206.8V194.91H691.3V206.8Z" transform="translate(-97.2 -39.18)"/><path class="cls-1" d="M590.56,310h-5.18v-5.32h5.18Z" transform="translate(-97.2 -39.18)"/><text class="cls-2" transform="translate(488.18 415.08)"><tspan class="cls-3">R</tspan><tspan class="cls-4" x="62.94" y="0">e</tspan><tspan class="cls-5" x="113.17" y="0">vi</tspan><tspan class="cls-6" x="195.83" y="0">e</tspan><tspan class="cls-7" x="246.77" y="0">w</tspan><tspan x="323.56" y="0">s</tspan></text></svg>