<?xml version="1.0" encoding="utf-8"?>
<!-- Generator: Adobe Illustrator 25.4.1, SVG Export Plug-In . SVG Version: 6.00 Build 0)  -->
<svg version="1.1" id="Layer_1" xmlns="http://www.w3.org/2000/svg" xmlns:xlink="http://www.w3.org/1999/xlink" x="0px" y="0px"
	 viewBox="0 0 434 469" style="enable-background:new 0 0 434 469;" xml:space="preserve">
<style type="text/css">
	.st0{fill:#FFFFFF;}
</style>
<g>
	<path class="st0" d="M231.81,32.4c9.05,22.23,18.07,44.47,27.16,66.67c13.59,33.2,27.24,66.37,40.85,99.56
		c0.5,1.23,0.93,2.49,1.58,4.25c-8.6-2.36-16.28-0.26-23.74,2.56c-3.19,1.2-6.87,2.91-8.7,5.52c-3.37,4.8-7.66,4.61-12.52,4.8
		c-5.62,0.22-8.36-1.71-10.51-7.2c-9.04-23.14-18.72-46.03-28.18-69.01c-0.56-1.36-1.23-2.68-2.21-4.82
		c-5.77,14.04-11.17,27.18-16.58,40.33c-4.94,12-9.97,23.97-14.75,36.04c-1.16,2.93-2.43,4.6-5.92,4.41
		c-3.17-0.17-6.38,0.46-9.4,0.73c-9.91-14.46-17.67-18.26-37.06-18c0.61-1.65,1.12-3.14,1.71-4.59
		c21.46-52.3,42.93-104.59,64.37-156.9c0.56-1.37,0.78-2.89,1.16-4.34C209.98,32.4,220.9,32.4,231.81,32.4z"/>
	<path class="st0" d="M26.15,453.79c1.99-4.41,4.12-8.76,5.96-13.23c19.92-48.42,39.82-96.85,59.6-145.33
		c1.3-3.18,2.85-4.14,6.31-4.33c9.17-0.51,18.3-1.74,27.45-2.66c0.76-0.08,1.84-0.31,2.26,0.08c6.06,5.61,13.61,6.59,21.83,6.98
		c-3.69,8.98-7.28,17.72-10.88,26.47c-18.21,44.29-36.41,88.58-54.62,132.86c-18.2,0-36.39,0.01-54.59-0.04
		C28.37,454.59,27.26,454.07,26.15,453.79z"/>
	<path class="st0" d="M346.81,454.63c-5.94-14.75-11.82-29.53-17.85-44.25c-14.61-35.67-29.29-71.31-43.93-106.97
		c-0.57-1.4-1.03-2.85-1.66-4.58c7.52-0.22,14.39-1.58,20.01-6.6c0.48-0.43,1.61-0.56,2.25-0.33c9.87,3.68,20.14,2.66,30.31,2.61
		c2.55-0.01,3.68,0.82,4.61,3.08c21.21,51.83,42.49,103.62,63.74,155.43c0.21,0.51,0.3,1.07,0.44,1.61
		C385.42,454.63,366.11,454.63,346.81,454.63z"/>
	<path class="st0" d="M330.13,286.57c-5.27-0.57-12.21-1.2-19.11-2.09c-5.4-0.69-8.65-4-10.37-9.1c-3.73-11.03-4.8-22.38-3.62-33.87
		c0.56-5.49,2.04-10.92,3.55-16.25c0.36-1.28,2.39-2.8,3.79-2.95c15.86-1.72,30.78-6.53,45.14-13.29c3.28-1.54,6.55-3.2,10-4.25
		c8.75-2.64,15.94,0.27,18.95,8.9c2.34,6.72,4.04,14.15,3.78,21.18c-0.36,9.79-2.42,19.59-4.46,29.23
		c-2.9,13.74-11.9,20.44-25.88,20.89C345.21,285.2,338.53,285.94,330.13,286.57z"/>
	<path class="st0" d="M97.99,282.85c-7.52-0.85-16.94-1.9-26.37-2.98c-7.18-0.83-11.95-4.84-15.01-11.25
		c-4.71-9.86-7.26-20.33-7.53-31.13c-0.19-7.74,0.13-15.75,1.9-23.24c3.12-13.25,12.53-17.41,24.9-11.69
		c12.7,5.88,25.48,11.43,39.31,14.06c3.15,0.6,6.33,1.32,9.51,1.38c3.87,0.08,5.79,1.91,6.88,5.39c3.28,10.49,3.31,21.21,2.34,31.97
		c-0.37,4.15-1.15,8.31-2.2,12.35c-2.59,9.94-6.02,12.8-16.27,13.85C110.31,282.08,105.15,282.33,97.99,282.85z"/>
	<path class="st0" d="M172.37,276.51c0.84-9.65,1.5-18.97,2.59-28.23c0.24-2.07,2.09-3.92,3.08-5.93c1.72-3.46,3.18-7.06,5.07-10.43
		c1.15-2.05,2.88-3.76,4.67-6.04c1.37,4.11,2.23,7.32,3.5,10.36c3.19,7.66,6.56,15.24,9.86,22.85c0.43,0.02,0.85,0.04,1.28,0.06
		c1.88-11.08,3.75-22.17,5.82-34.39c4.17,14.25,8.05,27.53,11.93,40.81c0.4-0.02,0.79-0.04,1.19-0.06
		c1.03-13.03,1.14-26.22,5.54-38.69c0.42-0.05,0.83-0.11,1.25-0.16c1.75,9.5,3.51,19,5.22,28.3c1.58-9.82,3.21-19.93,4.83-30.05
		c4.09,8.93,3.3,19.27,10.28,27.53c1.09-7.19,2.09-13.86,3.1-20.52c0.41-0.09,0.83-0.17,1.24-0.26c1.12,3.69,2.89,7.32,3.25,11.09
		c1.06,11.08,1.57,22.21,2.37,34.37c-5.4,0.1-11.59,0.11-17.76,0.4c-1.87,0.09-3.8,0.71-5.53,1.47
		c-13.12,5.81-26.16,5.74-39.32,0.03c-2.26-0.98-5.05-1.17-7.56-1.05c-3.87,0.17-7.64,1.3-11.36-1.12
		C175.69,276.08,173.66,276.58,172.37,276.51z"/>
	<path class="st0" d="M134.77,284.31c6.46-15.02,9.32-29.11,9.31-43.84c0-10.55-2.79-19.81-10.88-27.08
		c-1.09-0.98-2.45-3.55-2.11-3.91c1.19-1.27,3.12-2.74,4.68-2.65c14.87,0.88,23.2,3.93,26.37,17.88c3.52,15.46,5.03,30.9,0.59,46.37
		c-2.07,7.2-5.46,14-13.96,14.91C144.45,286.44,139.93,284.99,134.77,284.31z"/>
	<path class="st0" d="M294.64,287.43c-8.09,5.58-18.16,3.44-23.44-5.82c-4.14-7.26-5.09-15.33-5.43-23.43
		c-0.45-10.66,1.03-21.11,3.75-31.46c2.06-7.86,6.71-12.73,14.54-14.4c4.06-0.87,8.22-1.39,12.36-1.61
		c1.21-0.06,2.93,1.19,3.61,2.32c0.4,0.66-0.48,2.66-1.34,3.41c-12.1,10.43-13.01,24.27-11.03,38.46
		C289.17,265.71,292.2,276.32,294.64,287.43z"/>
</g>
</svg>
